<svg xmlns="http://www.w3.org/2000/svg" style="display: none;"><symbol id="technology" viewBox="0 0 33.023 33.023"><title>technology</title><path d="M10.033,33.023c-0.087,0-0.174-0.022-0.252-0.068c-0.209-0.122-0.301-0.375-0.218-0.603l5.223-14.359l-6.313-1.801 c-0.163-0.046-0.292-0.172-0.342-0.334c-0.049-0.162-0.014-0.339,0.096-0.469L21.032,0.177c0.152-0.181,0.41-0.228,0.618-0.119 c0.208,0.111,0.311,0.354,0.245,0.58l-3.692,12.807l6.347,1.811c0.164,0.046,0.293,0.173,0.342,0.336 c0.05,0.163,0.012,0.341-0.099,0.47l-14.38,16.787C10.315,32.962,10.175,33.023,10.033,33.023z M9.489,15.442l6.087,1.735 c0.134,0.038,0.245,0.13,0.309,0.253c0.063,0.124,0.072,0.268,0.024,0.398l-4.466,12.278l12.083-14.105l-6.079-1.733 c-0.128-0.036-0.236-0.122-0.301-0.238s-0.08-0.253-0.043-0.381l3.18-11.029L9.489,15.442z"/></symbol><symbol id="sky-3" viewBox="0 0 40.062 40.062"><title>sky-3</title><g> <path d="M25.615,33.608H6.442C2.89,33.608,0,30.719,0,27.167c0-3.502,2.81-6.361,6.294-6.44c1.241-4.303,5.161-7.274,9.67-7.274 c3.738,0,7.104,2.026,8.869,5.311c0.28-0.031,0.534-0.046,0.781-0.046c4.106,0,7.446,3.339,7.446,7.443 C33.062,30.268,29.721,33.608,25.615,33.608z M6.442,21.726C3.441,21.726,1,24.167,1,27.167c0,3,2.441,5.44,5.442,5.44h19.173 c3.555,0,6.446-2.892,6.446-6.446c0-3.553-2.892-6.443-6.446-6.443c-0.298,0-0.613,0.026-0.991,0.083 c-0.214,0.032-0.426-0.079-0.522-0.273c-1.544-3.129-4.663-5.074-8.138-5.074c-4.184,0-7.804,2.839-8.804,6.904 c-0.056,0.228-0.263,0.378-0.498,0.38L6.442,21.726z"/> <path d="M25.615,33.608c-0.276,0-0.5-0.224-0.5-0.5s0.224-0.5,0.5-0.5c3.555,0,6.446-2.892,6.446-6.446 c0-3.553-2.892-6.443-6.446-6.443c-1.862,0-3.633,0.805-4.858,2.208c-0.181,0.208-0.497,0.23-0.705,0.048 c-0.208-0.181-0.229-0.497-0.048-0.705c1.414-1.621,3.459-2.55,5.611-2.55c4.106,0,7.446,3.339,7.446,7.443 C33.062,30.268,29.721,33.608,25.615,33.608z"/> </g><g> <path d="M32.615,26.608c-0.276,0-0.5-0.224-0.5-0.5s0.224-0.5,0.5-0.5c3.555,0,6.446-2.892,6.446-6.446 c0-3.553-2.892-6.443-6.446-6.443c-0.298,0-0.613,0.026-0.991,0.083c-0.214,0.032-0.426-0.079-0.522-0.273 c-1.544-3.129-4.663-5.074-8.138-5.074c-4.184,0-7.804,2.839-8.804,6.904c-0.056,0.228-0.261,0.376-0.498,0.38l-0.127-0.007 c-0.276,0-0.547-0.227-0.547-0.502c0-0.22,0.112-0.409,0.298-0.476c1.232-4.316,5.159-7.299,9.677-7.299 c3.738,0,7.104,2.026,8.869,5.311c0.28-0.031,0.534-0.046,0.781-0.046c4.106,0,7.446,3.339,7.446,7.443 C40.062,23.268,36.721,26.608,32.615,26.608z"/> <path d="M32.615,26.608c-0.276,0-0.5-0.224-0.5-0.5s0.224-0.5,0.5-0.5c3.555,0,6.446-2.892,6.446-6.446 c0-3.553-2.892-6.443-6.446-6.443c-1.862,0-3.633,0.805-4.858,2.208c-0.181,0.209-0.497,0.23-0.705,0.048 c-0.208-0.181-0.229-0.497-0.048-0.705c1.414-1.621,3.459-2.55,5.611-2.55c4.106,0,7.446,3.339,7.446,7.443 C40.062,23.268,36.721,26.608,32.615,26.608z"/> </g></symbol><symbol id="sky-2" viewBox="0 0 33.062 33.062"><title>sky-2</title><path d="M25.615,26.608H6.442C2.89,26.608,0,23.719,0,20.167c0-3.502,2.81-6.361,6.294-6.44c1.241-4.303,5.161-7.274,9.67-7.274 c3.738,0,7.104,2.026,8.869,5.311c0.28-0.031,0.534-0.046,0.781-0.046c4.106,0,7.446,3.339,7.446,7.443 C33.062,23.268,29.721,26.608,25.615,26.608z M6.442,14.726C3.441,14.726,1,17.167,1,20.167c0,3,2.441,5.44,5.442,5.44h19.173 c3.555,0,6.446-2.892,6.446-6.446c0-3.553-2.892-6.443-6.446-6.443c-0.298,0-0.613,0.026-0.991,0.083 c-0.214,0.032-0.426-0.079-0.522-0.273c-1.544-3.129-4.663-5.074-8.138-5.074c-4.184,0-7.804,2.839-8.804,6.904 c-0.056,0.228-0.275,0.377-0.498,0.38L6.442,14.726z"/><path d="M25.615,26.608c-0.276,0-0.5-0.224-0.5-0.5s0.224-0.5,0.5-0.5c3.555,0,6.446-2.892,6.446-6.446 c0-3.553-2.892-6.443-6.446-6.443c-1.862,0-3.633,0.805-4.858,2.208c-0.181,0.208-0.497,0.23-0.705,0.048 c-0.208-0.181-0.229-0.497-0.048-0.705c1.414-1.621,3.459-2.55,5.611-2.55c4.106,0,7.446,3.339,7.446,7.443 C33.062,23.268,29.721,26.608,25.615,26.608z"/></symbol><symbol id="sky-1" viewBox="0 0 33.062 33.062"><title>sky-1</title><g> <path d="M25.615,22.324c-0.276,0-0.5-0.224-0.5-0.5s0.224-0.5,0.5-0.5c3.555,0,6.446-2.892,6.446-6.446 c0-3.553-2.892-6.443-6.446-6.443c-0.298,0-0.613,0.026-0.991,0.083c-0.214,0.033-0.426-0.079-0.522-0.273 C22.558,5.114,19.44,3.17,15.965,3.17c-4.184,0-7.804,2.839-8.804,6.904c-0.056,0.228-0.278,0.373-0.498,0.38l-0.127-0.007 c-0.003,0-0.006,0-0.009,0C3.437,10.447,1,12.886,1,15.884c0,3,2.441,5.44,5.442,5.44c0.276,0,0.5,0.224,0.5,0.5 s-0.224,0.5-0.5,0.5C2.89,22.324,0,19.435,0,15.884c0-3.502,2.81-6.361,6.294-6.44c1.241-4.303,5.161-7.274,9.67-7.274 c3.738,0,7.104,2.026,8.869,5.311c0.28-0.031,0.534-0.046,0.781-0.046c4.106,0,7.446,3.339,7.446,7.443 C33.062,18.984,29.721,22.324,25.615,22.324z"/> <path d="M25.615,22.324c-0.276,0-0.5-0.224-0.5-0.5s0.224-0.5,0.5-0.5c3.555,0,6.446-2.892,6.446-6.446 c0-3.553-2.892-6.443-6.446-6.443c-1.862,0-3.633,0.805-4.858,2.208c-0.181,0.209-0.497,0.23-0.705,0.048 c-0.208-0.181-0.229-0.497-0.048-0.705c1.414-1.621,3.459-2.55,5.611-2.55c4.106,0,7.446,3.339,7.446,7.443 C33.062,18.984,29.721,22.324,25.615,22.324z"/> </g><g> <path d="M8.275,30.892c-0.051,0-0.102-0.008-0.153-0.024c-0.263-0.084-0.407-0.366-0.323-0.629l0.918-2.855 c0.085-0.263,0.368-0.407,0.629-0.323c0.263,0.084,0.408,0.366,0.323,0.629l-0.918,2.856C8.683,30.757,8.486,30.892,8.275,30.892z M10.112,25.18c-0.051,0-0.102-0.008-0.153-0.024c-0.263-0.084-0.408-0.366-0.323-0.629l0.918-2.856 c0.085-0.263,0.366-0.405,0.629-0.323c0.263,0.084,0.407,0.366,0.323,0.629l-0.918,2.856C10.52,25.045,10.324,25.18,10.112,25.18z "/> </g><g> <path d="M18.275,30.892c-0.051,0-0.102-0.008-0.153-0.024c-0.263-0.084-0.407-0.366-0.323-0.629l0.918-2.855 c0.085-0.263,0.368-0.407,0.629-0.323c0.263,0.084,0.408,0.366,0.323,0.629l-0.918,2.856 C18.683,30.757,18.486,30.892,18.275,30.892z M20.112,25.18c-0.051,0-0.102-0.008-0.153-0.024 c-0.263-0.084-0.408-0.366-0.323-0.629l0.918-2.856c0.085-0.263,0.366-0.405,0.629-0.323c0.263,0.084,0.407,0.366,0.323,0.629 l-0.918,2.856C20.52,25.045,20.324,25.18,20.112,25.18z"/> </g><g> <path d="M13.275,30.892c-0.051,0-0.102-0.008-0.153-0.024c-0.263-0.084-0.407-0.366-0.323-0.629l0.918-2.855 c0.085-0.263,0.368-0.407,0.629-0.323c0.263,0.084,0.408,0.366,0.323,0.629l-0.918,2.856 C13.683,30.757,13.486,30.892,13.275,30.892z M15.112,25.18c-0.051,0-0.102-0.008-0.153-0.024 c-0.263-0.084-0.408-0.366-0.323-0.629l0.918-2.856c0.085-0.263,0.366-0.405,0.629-0.323c0.263,0.084,0.407,0.366,0.323,0.629 l-0.918,2.856C15.52,25.045,15.324,25.18,15.112,25.18z"/> </g></symbol><symbol id="sky" viewBox="0 0 33.062 33.062"><title>sky</title><path d="M25.615,26.608H6.442C2.89,26.608,0,23.719,0,20.168c0-3.502,2.81-6.361,6.294-6.439c1.241-4.304,5.161-7.275,9.67-7.275 c3.736,0,7.101,2.023,8.866,5.306c0.26-0.026,0.522-0.04,0.784-0.04c4.106,0,7.446,3.339,7.446,7.443 C33.062,23.268,29.721,26.608,25.615,26.608z M6.527,14.732C3.437,14.732,1,17.17,1,20.168c0,2.999,2.441,5.439,5.442,5.439h19.173 c3.555,0,6.446-2.892,6.446-6.445c0-3.553-2.892-6.443-6.446-6.443c-0.314,0-0.63,0.022-0.939,0.066 c-0.229,0.063-0.469-0.046-0.574-0.259c-1.545-3.13-4.663-5.073-8.137-5.073c-4.183,0-7.803,2.839-8.804,6.904 c-0.056,0.228-0.278,0.372-0.498,0.381l-0.127-0.007C6.533,14.732,6.53,14.732,6.527,14.732z"/></symbol><symbol id="cloud" viewBox="0 0 46.6 46.6"><title>cloud</title><path d="M25.615,39.658H6.442C2.89,39.658,0,36.769,0,33.217c0-3.502,2.81-6.361,6.294-6.44c1.24-4.303,5.16-7.274,9.67-7.274 c3.738,0,7.104,2.026,8.869,5.311c0.279-0.031,0.534-0.046,0.781-0.046c4.105,0,7.446,3.339,7.446,7.443 C33.061,36.317,29.721,39.658,25.615,39.658z M6.442,27.776c-3,0-5.442,2.441-5.442,5.441c0,3,2.441,5.44,5.442,5.44h19.173 c3.554,0,6.446-2.892,6.446-6.446c0-3.553-2.892-6.443-6.446-6.443c-0.299,0-0.614,0.026-0.991,0.083 c-0.215,0.031-0.426-0.078-0.522-0.273c-1.544-3.129-4.663-5.074-8.138-5.074c-4.184,0-7.804,2.839-8.804,6.904 c-0.056,0.228-0.259,0.369-0.498,0.38L6.442,27.776z"/><path d="M25.615,39.658c-0.276,0-0.5-0.224-0.5-0.5s0.224-0.5,0.5-0.5c3.554,0,6.446-2.892,6.446-6.446 c0-3.553-2.892-6.443-6.446-6.443c-1.863,0-3.633,0.805-4.857,2.208c-0.182,0.208-0.497,0.229-0.706,0.048 c-0.208-0.182-0.229-0.498-0.048-0.706c1.414-1.621,3.459-2.55,5.611-2.55c4.105,0,7.446,3.339,7.446,7.443 C33.061,36.317,29.721,39.658,25.615,39.658z"/><g> <path d="M36.044,29.809c-0.128,0-0.256-0.049-0.354-0.147c-0.195-0.196-0.194-0.513,0.001-0.708 c1.491-1.484,2.312-3.46,2.312-5.564c0-4.33-3.522-7.853-7.853-7.853c-2.278,0-4.442,0.989-5.937,2.713 c-0.182,0.208-0.497,0.231-0.706,0.05c-0.208-0.181-0.231-0.497-0.05-0.706c1.685-1.943,4.125-3.058,6.693-3.058 c4.881,0,8.853,3.971,8.853,8.853c0,2.372-0.925,4.6-2.605,6.273C36.299,29.761,36.171,29.809,36.044,29.809z"/> <g> <path d="M30.15,11.695c-0.276,0-0.5-0.224-0.5-0.5V7.442c0-0.276,0.224-0.5,0.5-0.5s0.5,0.224,0.5,0.5v3.753 C30.65,11.471,30.426,11.695,30.15,11.695z"/> </g> <g> <path d="M46.1,23.89h-3.753c-0.276,0-0.5-0.224-0.5-0.5s0.224-0.5,0.5-0.5H46.1c0.276,0,0.5,0.224,0.5,0.5 S46.376,23.89,46.1,23.89z"/> </g> <g> <path d="M38.774,15.266c-0.128,0-0.256-0.049-0.354-0.146c-0.195-0.195-0.195-0.512,0-0.707l2.654-2.653 c0.195-0.195,0.512-0.195,0.707,0s0.195,0.512,0,0.707l-2.654,2.653C39.03,15.217,38.902,15.266,38.774,15.266z"/> </g> <g> <path d="M41.427,35.168c-0.128,0-0.256-0.049-0.354-0.146L38.42,32.37c-0.195-0.195-0.195-0.512,0-0.707s0.512-0.195,0.707,0 l2.653,2.652c0.195,0.195,0.195,0.512,0,0.707C41.683,35.12,41.555,35.168,41.427,35.168z"/> <path d="M21.524,15.266c-0.128,0-0.256-0.049-0.354-0.146l-2.652-2.653c-0.195-0.195-0.195-0.512,0-0.707s0.512-0.195,0.707,0 l2.652,2.653c0.195,0.195,0.195,0.512,0,0.707C21.78,15.217,21.652,15.266,21.524,15.266z"/> </g> </g></symbol><symbol id="sun" viewBox="0 0 34.85 34.85"><title>sun</title><path d="M17.424,26.788c-5.163,0-9.363-4.2-9.363-9.363c0-5.164,4.2-9.364,9.363-9.364s9.363,4.201,9.363,9.364 C26.788,22.588,22.587,26.788,17.424,26.788z M17.424,9.061c-4.611,0-8.363,3.752-8.363,8.364c0,4.611,3.752,8.363,8.363,8.363 s8.363-3.752,8.363-8.363C25.788,12.813,22.036,9.061,17.424,9.061z"/><g> <path d="M17.424,4.982c-0.276,0-0.5-0.224-0.5-0.5V0.5c0-0.276,0.224-0.5,0.5-0.5s0.5,0.224,0.5,0.5v3.982 C17.924,4.759,17.701,4.982,17.424,4.982z"/> <path d="M17.424,34.85c-0.276,0-0.5-0.224-0.5-0.5v-3.982c0-0.276,0.224-0.5,0.5-0.5s0.5,0.224,0.5,0.5v3.982 C17.924,34.626,17.701,34.85,17.424,34.85z"/> </g><g> <path d="M4.482,17.925H0.5c-0.276,0-0.5-0.224-0.5-0.5s0.224-0.5,0.5-0.5h3.981c0.276,0,0.5,0.224,0.5,0.5 S4.758,17.925,4.482,17.925z"/> <path d="M34.349,17.925h-3.982c-0.276,0-0.5-0.224-0.5-0.5s0.224-0.5,0.5-0.5h3.982c0.276,0,0.5,0.224,0.5,0.5 S34.625,17.925,34.349,17.925z"/> </g><g> <path d="M8.274,8.771c-0.128,0-0.256-0.049-0.354-0.146L5.104,5.811c-0.195-0.195-0.195-0.512,0-0.707s0.512-0.195,0.707,0 l2.816,2.814c0.195,0.195,0.195,0.512,0,0.707C8.53,8.723,8.402,8.771,8.274,8.771z"/> <path d="M29.393,29.893c-0.128,0-0.256-0.049-0.354-0.146l-2.816-2.817c-0.195-0.195-0.195-0.512,0-0.707s0.512-0.195,0.707,0 l2.816,2.817c0.195,0.195,0.195,0.512,0,0.707C29.649,29.844,29.521,29.893,29.393,29.893z"/> </g><g> <path d="M5.458,29.893c-0.128,0-0.256-0.049-0.354-0.146c-0.195-0.195-0.195-0.512,0-0.707l2.816-2.817 c0.195-0.195,0.512-0.195,0.707,0s0.195,0.512,0,0.707l-2.816,2.817C5.713,29.844,5.585,29.893,5.458,29.893z"/> <path d="M26.577,8.771c-0.128,0-0.256-0.049-0.354-0.146c-0.195-0.195-0.195-0.512,0-0.707l2.816-2.814 c0.195-0.195,0.512-0.195,0.707,0s0.195,0.512,0,0.707L26.93,8.625C26.833,8.723,26.705,8.771,26.577,8.771z"/> </g></symbol></svg>